<svg version="1.1" id="mi-a3" xmlns="http://www.w3.org/2000/svg" xmlns:xlink="http://www.w3.org/1999/xlink" x="0px" y="0px"
	 viewBox="0 0 22 54" style="enable-background:new 0 0 22 54;" xml:space="preserve">
<style type="text/css">
	.st0{fill:#333333;}
</style>
<g id="Light">
	<path class="st0" d="M18.8,7H3.2C1.4,7,0,8.4,0,10.2v37.6C0,49.6,1.4,51,3.2,51h15.6c1.8,0,3.2-1.4,3.2-3.2V10.2
		C22,8.4,20.6,7,18.8,7z M21,47.8c0,1.2-1,2.2-2.2,2.2H3.2C2,50,1,49,1,47.8V10.2C1,9,2,8,3.2,8h2.3c0.3,0,4.3,0,4.3,0
		c0.7,1.2,1.5,1.3,2.2,0c0,0,4.2,0,4.5,0h2.3C20,8,21,9,21,10.2c0,0,0,0,0,0V47.8z"/>
</g>
</svg>
